# xmcd
#
# Track frame offsets: 
#        150
#        14945
#        36772
#        53737
#        68977
#        83198
#        108299
#        129272
#        146409
#        161679
#        181798
#        207974
#        224904
#        245006
#        265193
#        285393
#        307579
#        322806
#        339963
#
# Disc length: 4722 seconds
#
# Revision: 0
# Processed by: cddbd v1.5.2PL0 Copyright (c) Steve Scherf et al.
# Submitted via: ExactAudioCopyFreeDBPlugin 1.0
#
DISCID=0f127013
DTITLE=My Tam - The best of
DYEAR=1900
DGENRE=
TTITLE0=Tinh nong
TTITLE1=Em cho anh
TTITLE2=Tinh yeu chua noi
TTITLE3=Hay den voi em
TTITLE4=Ngay hom nay
TTITLE5=Duong nhu ta da
TTITLE6=Chi yeu minh anh
TTITLE7=Giot suong
TTITLE8=Bi mat
TTITLE9=O cua so
TTITLE10=Tinh ve mai sau
TTITLE11=Khoc mot minh
TTITLE12=Giac mo mua he
TTITLE13=Vi anh day thoi
TTITLE14=Em da yeu anh
TTITLE15=Duong nhu ta da
TTITLE16=Hay den voi em
TTITLE17=Giot suong
TTITLE18=Ngay hom qua
EXTD=
EXTT0=
EXTT1=
EXTT2=
EXTT3=
EXTT4=
EXTT5=
EXTT6=
EXTT7=
EXTT8=
EXTT9=
EXTT10=
EXTT11=
EXTT12=
EXTT13=
EXTT14=
EXTT15=
EXTT16=
EXTT17=
EXTT18=
PLAYORDER=
